<svg xmlns="http://www.w3.org/2000/svg" width="67" height="67" viewBox="0 0 1000 1000">
  <defs>
    <style>
      .cls-1 {
        fill: #ae9110;
        fill-rule: evenodd;
      }
    </style>
  </defs>
  <path id="_" data-name="🤖" class="cls-1" d="M878.4,434H859.659l-0.781-63.262a57.335,57.335,0,0,0-57.015-57.015H521.868V215.71a71.785,71.785,0,0,0,45.69-90.208c-12.5-37.1-52.719-57.8-90.208-45.3a71.255,71.255,0,0,0-45.3,90.207c7.03,21.088,24.212,37.88,45.3,45.3v98.8H198.527c-31.631,0-57.4,25.774-57.4,57.015V434H122.768A60.332,60.332,0,0,0,62.24,494.533V775.7a60.419,60.419,0,0,0,60.529,60.92h18.354v60.138c0,31.241,25.774,56.233,57.4,57.014H801.863a57.334,57.334,0,0,0,57.015-57.014V842.476h0.781v-5.857H878.4a60.5,60.5,0,0,0,60.919-60.92V494.533C939.322,461.73,912.377,434.785,878.4,434ZM470.712,148.151A29.288,29.288,0,1,1,500,177.44,29.5,29.5,0,0,1,470.712,148.151ZM454.7,660.109l19.525-39.442,19.135-35.146c2.343-3.9,6.639-5.076,10.154-3.124a6.1,6.1,0,0,1,3.124,3.124l19.135,36.708,19.525,37.88c1.562,3.514.781,8.2-2.734,9.372-0.781.781-2.343,0.781-3.905,0.781H461.34c-3.906,0-7.42-3.515-7.42-7.029C453.92,662.452,453.92,660.89,454.7,660.109ZM266.476,534.755c0-42.175,34.364-76.539,76.93-76.539s76.93,34.364,76.93,76.539A76.93,76.93,0,1,1,266.476,534.755Zm42.565,252.659v-4.295a45.85,45.85,0,0,1,44.518-46.08V833.1C328.567,833.1,309.041,812.407,309.041,787.414ZM371.132,833.5V737.82h53.5V833.5h-53.5Zm70.292,0V737.82h49.985V833.5H441.424Zm67.558,0V737.82h49.594V833.5H508.982Zm66.386,0V737.82h53.5V833.5h-53.5Zm115.591-46.081a45.746,45.746,0,0,1-45.3,46.081V737.82c24.992,0.781,45.3,20.306,45.3,46.08v3.514Zm-37.1-175.728a76.831,76.831,0,0,1-76.93-76.931c0-42.175,34.365-76.539,76.93-76.539s76.931,34.364,76.931,76.539A76.831,76.831,0,0,1,653.86,611.686Z"/>
</svg>
